<?xml version="1.0" encoding="UTF-8" standalone="no"?>
<svg width="180px" height="90px" viewBox="0 0 180 90" version="1.1" xmlns="http://www.w3.org/2000/svg" xmlns:xlink="http://www.w3.org/1999/xlink">
    <!-- Generator: Sketch 3.8.3 (29802) - http://www.bohemiancoding.com/sketch -->
    <title>30-min</title>
    <desc>Created with Sketch.</desc>
    <defs></defs>
    <g id="Page-1" stroke="none" stroke-width="1" fill="none" fill-rule="evenodd">
        <g id="30-min">
            <circle id="Oval-8" stroke="#4990E2" stroke-width="2" cx="90.5" cy="45.5" r="42.5"></circle>
            <path d="M90.5,81 C110.106109,81 126,65.1061086 126,45.5 C126,25.8938914 110.106109,10 90.5,10 C90.5000001,31.1762759 90.5,58.8341112 90.5,81 Z" id="Oval-8" fill="#4990E2"></path>
            <g id="Group-4" transform="translate(89.000000, 3.000000)" stroke="#4990E2" stroke-width="2" stroke-linecap="square">
                <path d="M1.5,0.5 L1.5,3.5" id="Line"></path>
                <path d="M1.5,81.5 L1.5,84.5" id="Line"></path>
            </g>
            <g id="Group-4" transform="translate(89.633975, 45.000000) rotate(-330.000000) translate(-89.633975, -45.000000) translate(89.133975, 2.500000)" stroke="#4990E2" stroke-linecap="square">
                <path d="M0.5,0.5 L0.5,3.5" id="Line"></path>
                <path d="M0.5,81.5 L0.5,84.5" id="Line"></path>
            </g>
            <g id="Group-4" transform="translate(90.000000, 44.633975) rotate(-300.000000) translate(-90.000000, -44.633975) translate(89.500000, 2.133975)" stroke="#4990E2" stroke-linecap="square">
                <path d="M0.5,0.5 L0.5,3.5" id="Line"></path>
                <path d="M0.5,81.5 L0.5,84.5" id="Line"></path>
            </g>
            <g id="Group-4" transform="translate(90.500000, 45.500000) rotate(-270.000000) translate(-90.500000, -45.500000) translate(89.000000, 3.000000)" stroke="#4990E2" stroke-width="2" stroke-linecap="square">
                <path d="M1.5,0.5 L1.5,3.5" id="Line"></path>
                <path d="M1.5,81.5 L1.5,84.5" id="Line"></path>
            </g>
            <g id="Group-4" transform="translate(91.000000, 44.633975) rotate(-240.000000) translate(-91.000000, -44.633975) translate(90.500000, 2.133975)" stroke="#4990E2" stroke-linecap="square">
                <path d="M0.5,0.5 L0.5,3.5" id="Line"></path>
                <path d="M0.5,81.5 L0.5,84.5" id="Line"></path>
            </g>
            <g id="Group-4" transform="translate(91.366025, 45.000000) rotate(-210.000000) translate(-91.366025, -45.000000) translate(90.866025, 2.500000)" stroke="#4990E2" stroke-linecap="square">
                <path d="M0.5,0.5 L0.5,3.5" id="Line"></path>
                <path d="M0.5,81.5 L0.5,84.5" id="Line"></path>
            </g>
        </g>
    </g>
</svg>