<?xml version="1.0" encoding="UTF-8" standalone="no"?>
<svg width="180px" height="90px" viewBox="0 0 180 90" version="1.1" xmlns="http://www.w3.org/2000/svg" xmlns:xlink="http://www.w3.org/1999/xlink">
    <!-- Generator: Sketch 3.8.3 (29802) - http://www.bohemiancoding.com/sketch -->
    <title>45-min</title>
    <desc>Created with Sketch.</desc>
    <defs></defs>
    <g id="Page-1" stroke="none" stroke-width="1" fill="none" fill-rule="evenodd">
        <g id="45-min">
            <g id="Group-4" transform="translate(89.000000, 3.000000)" stroke="#4990E2" stroke-width="2" stroke-linecap="square">
                <path d="M1.5,0.5 L1.5,3.5" id="Line"></path>
                <path d="M1.5,81.5 L1.5,84.5" id="Line"></path>
            </g>
            <g id="Group-4" transform="translate(89.633975, 45.000000) rotate(-330.000000) translate(-89.633975, -45.000000) translate(89.133975, 2.500000)" stroke="#4990E2" stroke-linecap="square">
                <path d="M0.5,0.5 L0.5,3.5" id="Line"></path>
                <path d="M0.5,81.5 L0.5,84.5" id="Line"></path>
            </g>
            <g id="Group-4" transform="translate(90.000000, 44.633975) rotate(-300.000000) translate(-90.000000, -44.633975) translate(89.500000, 2.133975)" stroke="#4990E2" stroke-linecap="square">
                <path d="M0.5,0.5 L0.5,3.5" id="Line"></path>
                <path d="M0.5,81.5 L0.5,84.5" id="Line"></path>
            </g>
            <g id="Group-4" transform="translate(90.500000, 45.500000) rotate(-270.000000) translate(-90.500000, -45.500000) translate(89.000000, 3.000000)" stroke="#4990E2" stroke-width="2" stroke-linecap="square">
                <path d="M1.5,0.5 L1.5,3.5" id="Line"></path>
                <path d="M1.5,81.5 L1.5,84.5" id="Line"></path>
            </g>
            <g id="Group-4" transform="translate(91.000000, 44.633975) rotate(-240.000000) translate(-91.000000, -44.633975) translate(90.500000, 2.133975)" stroke="#4990E2" stroke-linecap="square">
                <path d="M0.5,0.5 L0.5,3.5" id="Line"></path>
                <path d="M0.5,81.5 L0.5,84.5" id="Line"></path>
            </g>
            <g id="Group-4" transform="translate(91.366025, 45.000000) rotate(-210.000000) translate(-91.366025, -45.000000) translate(90.866025, 2.500000)" stroke="#4990E2" stroke-linecap="square">
                <path d="M0.5,0.5 L0.5,3.5" id="Line"></path>
                <path d="M0.5,81.5 L0.5,84.5" id="Line"></path>
            </g>
            <circle id="Oval-8" stroke="#4990E2" stroke-width="2" cx="90.5" cy="45.5" r="42.5"></circle>
            <g id="Group-6" transform="translate(54.000000, 10.000000)" fill="#4990E2">
                <path d="M53.8921293,65.2599414 C64.7524734,59.1942647 72.0512821,47.913894 72.0512821,35 C72.0512821,15.6700338 55.6981955,0 35.525641,0 C35.5256411,10.2603314 35.5256411,22.0640091 35.5256411,34.0099068 C23.5645242,34.0099068 11.5090396,34.0099068 0.762820513,34.0099068 C0.762820513,54.1824613 16.4328543,70.5355478 35.7628205,70.5355478 C42.3993498,70.5355478 48.6044663,68.607936 53.8921253,65.259944 Z" id="Combined-Shape"></path>
            </g>
        </g>
    </g>
</svg>