<?xml version="1.0" encoding="UTF-8" standalone="no"?>
<svg width="180px" height="90px" viewBox="0 0 180 90" version="1.1" xmlns="http://www.w3.org/2000/svg" xmlns:xlink="http://www.w3.org/1999/xlink">
    <!-- Generator: Sketch 3.8.3 (29802) - http://www.bohemiancoding.com/sketch -->
    <title>buy-home</title>
    <desc>Created with Sketch.</desc>
    <defs></defs>
    <g id="Page-1" stroke="none" stroke-width="1" fill="none" fill-rule="evenodd">
        <g id="buy-home" fill="#4990E2">
            <g id="Group-4" transform="translate(38.500000, 78.470703) rotate(-360.000000) translate(-38.500000, -78.470703) translate(5.000000, 61.470703)">
                <path d="M0.95200845,24 L1.11727403e-13,24 L0.95200845,22 L1.11727403e-13,22 L0.95200845,20 L1.11727403e-13,20 L0.95200845,18 L1.11727403e-13,18 L0.95200845,16 L1.11727403e-13,16 L11.4241014,-8 L66.4241014,-8 L65.472093,-6 L66.4241014,-6 L65.472093,-4 L66.4241014,-4 L65.472093,-2 L66.4241014,-2 L65.472093,-1.65201186e-13 L66.4241014,-1.687539e-13 L65.472093,2 L66.4241014,2 L55,26 L1.11727403e-13,26 L0.95200845,24 Z M39.6994386,-0.989656902 C38.8496004,-0.360615015 38.0134115,0.251568353 37.1908468,0.846911567 C37.0436972,0.566089296 36.8109785,0.34705121 36.492684,0.189790739 C36.1743895,0.0325302668 35.8381945,-0.0517151508 35.4840888,-0.0629480417 L34.2008384,2.63293228 C34.5747583,2.76772697 34.9462687,2.91936872 35.3153808,3.08786208 C35.6844929,3.25635545 35.9875508,3.48100989 36.2245636,3.76183217 C36.4615764,4.04265444 36.6017818,4.38525247 36.645184,4.78963654 C36.6885862,5.19402061 36.5659227,5.69949311 36.2771899,6.30606922 C35.9831102,6.92387822 35.6182804,7.46024071 35.1826894,7.91517279 C34.7470985,8.37010487 34.2745924,8.74920925 33.765157,9.0524973 C33.2557217,9.35578535 32.7305011,9.58605616 32.1894795,9.74331663 C31.6484579,9.9005771 31.1281578,9.98482252 30.6285637,9.99605541 L30.0430807,11.2260508 L28.796236,11.2260508 L29.381719,9.99605541 C28.6622749,9.97358963 27.9920302,9.83598878 27.3709648,9.58324874 C26.7498993,9.33050869 26.2788567,8.95140431 25.9578228,8.44592423 C26.3942444,8.14263617 26.8348042,7.83654449 27.2795157,7.52763999 C27.7242272,7.21873549 28.1674605,6.90702745 28.6092289,6.5925065 C28.675053,6.76099987 28.7756413,6.9154498 28.9109971,7.05586093 C29.0463528,7.19627207 29.1966798,7.31702383 29.3619826,7.41811985 C29.5272854,7.51921587 29.7019427,7.60065311 29.8859596,7.66243401 C30.0699766,7.72421491 30.2574618,7.75510489 30.448421,7.75510489 L31.8519761,4.80648579 C31.4331246,4.6716911 31.041957,4.52004935 30.6784613,4.35155599 C30.3149657,4.18306262 30.0288916,3.96402454 29.8202306,3.69443516 C29.6115696,3.42484578 29.4983788,3.09628865 29.4806549,2.70875391 C29.4629311,2.32121918 29.5877399,1.84663666 29.855085,1.28499212 C30.1170833,0.734580468 30.4633341,0.243148866 30.8938477,-0.189317432 C31.3243613,-0.621783729 31.7901838,-0.986847205 32.2913292,-1.28451881 C32.7924747,-1.58219042 33.3064626,-1.81246123 33.8333083,-1.97533815 C34.360154,-2.13821506 34.8479579,-2.23088502 35.2967344,-2.2533508 L35.8501362,-3.41594919 L37.0801316,-3.41594919 L36.5347501,-2.27020006 C37.1643311,-2.24773427 37.7679771,-2.13540705 38.3457063,-1.93321502 C38.9234355,-1.73102298 39.3746751,-1.41650675 39.6994386,-0.989656902 Z M33.5428253,6.45771249 C33.7299669,6.06456131 33.7551856,5.76970235 33.6184822,5.57312676 C33.4817787,5.37655117 33.2604386,5.22210123 32.9544551,5.10977233 L31.6872453,7.77195414 C32.0798574,7.74948836 32.4404845,7.62312024 32.7691374,7.39284597 C33.0977903,7.16257171 33.3556837,6.85086367 33.5428253,6.45771249 Z M32.5212441,1.09965035 C32.3501432,1.45910285 32.3258568,1.73430455 32.4483844,1.9252637 C32.570912,2.11622284 32.7905111,2.25663187 33.1071884,2.346495 L34.2701341,-0.0966465457 C33.9508053,-0.0629478732 33.6236069,0.0521875309 33.2885289,0.248763121 C32.9534509,0.44533871 32.6976919,0.72896495 32.5212441,1.09965035 Z" id="Combined-Shape"></path>
            </g>
            <g id="Group-5" transform="translate(77.928848, 3.000000)">
                <path d="M44,84 L89,84 L89,38 L100.083261,38 L50.8578644,0.570153146 L1.63246763,38 L12,38 L12,84 L23,84 L23,50 L44,50 L44,84 Z M55,50 L66.4285714,50 L66.4285714,61.4285714 L55,61.4285714 L55,50 Z M68.5714286,50 L80,50 L80,61.4285714 L68.5714286,61.4285714 L68.5714286,50 Z M68.5714286,63.5714286 L80,63.5714286 L80,75 L68.5714286,75 L68.5714286,63.5714286 Z M55,63.5714286 L66.4285714,63.5714286 L66.4285714,75 L55,75 L55,63.5714286 Z" id="Combined-Shape"></path>
            </g>
            <g id="Group-5" transform="translate(77.928848, 3.000000)">
                <path d="M44,84 L89,84 L89,38 L100.083261,38 L50.8578644,0.570153146 L1.63246763,38 L12,38 L12,84 L23,84 L23,50 L44,50 L44,84 Z M55,50 L66.4285714,50 L66.4285714,61.4285714 L55,61.4285714 L55,50 Z M68.5714286,50 L80,50 L80,61.4285714 L68.5714286,61.4285714 L68.5714286,50 Z M68.5714286,63.5714286 L80,63.5714286 L80,75 L68.5714286,75 L68.5714286,63.5714286 Z M55,63.5714286 L66.4285714,63.5714286 L66.4285714,75 L55,75 L55,63.5714286 Z" id="Combined-Shape"></path>
            </g>
        </g>
    </g>
</svg>