<?xml version="1.0" encoding="UTF-8" standalone="no"?>
<svg width="16px" height="16px" viewBox="0 0 16 16" version="1.1" xmlns="http://www.w3.org/2000/svg" xmlns:xlink="http://www.w3.org/1999/xlink">
    <!-- Generator: Sketch 3.8.3 (29802) - http://www.bohemiancoding.com/sketch -->
    <title>facebook</title>
    <desc>Created with Sketch.</desc>
    <defs></defs>
    <g id="Page-1" stroke="none" stroke-width="1" fill="none" fill-rule="evenodd">
        <g id="facebook" fill="#FFFFFF">
            <path d="M6.714875,8.09375 L5.168,8.09375 L5.168,6.5 L6.714875,6.5 L6.714875,5.4375 C6.714875,4.91666406 6.75133297,4.44531461 6.82425,4.0234375 C6.89716703,3.60156039 7.03518648,3.23958484 7.2383125,2.9375 C7.44143852,2.63541516 7.72528984,2.40364664 8.089875,2.2421875 C8.45446016,2.08072836 8.92841375,2 9.51175,2 C9.93883547,2 10.3346648,2.03645797 10.69925,2.109375 L10.57425,3.703125 C10.4388327,3.67187484 10.3086256,3.64583344 10.183625,3.625 C10.0586244,3.60416656 9.92841734,3.59375 9.793,3.59375 C9.53258203,3.59375 9.32425078,3.63541625 9.168,3.71875 C9.01174922,3.80208375 8.88935461,3.9140618 8.8008125,4.0546875 C8.71227039,4.1953132 8.6549793,4.35937406 8.6289375,4.546875 C8.6028957,4.73437594 8.589875,4.93229063 8.589875,5.140625 L8.589875,6.5 L10.32425,6.5 L10.32425,8.09375 L8.589875,8.09375 L8.589875,14 L6.714875,14 L6.714875,8.09375 Z" id="f"></path>
        </g>
    </g>
</svg>