<?xml version="1.0" encoding="UTF-8" standalone="no"?>
<svg width="180px" height="90px" viewBox="0 0 180 90" version="1.1" xmlns="http://www.w3.org/2000/svg" xmlns:xlink="http://www.w3.org/1999/xlink">
    <!-- Generator: Sketch 3.8.3 (29802) - http://www.bohemiancoding.com/sketch -->
    <title>search-home</title>
    <desc>Created with Sketch.</desc>
    <defs></defs>
    <g id="Page-1" stroke="none" stroke-width="1" fill="none" fill-rule="evenodd">
        <g id="search-home" fill="#4990E2">
            <g id="Group-5" transform="translate(62.000000, 3.000000)">
                <path d="M44,84 L89,84 L89,38 L100.083261,38 L50.8578644,0.570153146 L1.63246763,38 L12,38 L12,84 L23,84 L23,50 L44,50 L44,84 Z M55,50 L66.4285714,50 L66.4285714,61.4285714 L55,61.4285714 L55,50 Z M68.5714286,50 L80,50 L80,61.4285714 L68.5714286,61.4285714 L68.5714286,50 Z M68.5714286,63.5714286 L80,63.5714286 L80,75 L68.5714286,75 L68.5714286,63.5714286 Z M55,63.5714286 L66.4285714,63.5714286 L66.4285714,75 L55,75 L55,63.5714286 Z" id="Combined-Shape"></path>
            </g>
            <rect id="Rectangle-195" transform="translate(25.612761, 58.475559) rotate(40.000000) translate(-25.612761, -58.475559) " x="24.1127613" y="49.9755592" width="3" height="17"></rect>
            <path d="M36.5,55 C41.7467051,55 46,50.7467051 46,45.5 C46,40.2532949 41.7467051,36 36.5,36 C31.2532949,36 27,40.2532949 27,45.5 C27,50.7467051 31.2532949,55 36.5,55 Z M36.5,52 C40.0898509,52 43,49.0898509 43,45.5 C43,41.9101491 40.0898509,39 36.5,39 C32.9101491,39 30,41.9101491 30,45.5 C30,49.0898509 32.9101491,52 36.5,52 Z" id="Combined-Shape"></path>
        </g>
    </g>
</svg>