<?xml version="1.0" encoding="UTF-8" standalone="no"?>
<svg width="32px" height="32px" viewBox="0 0 32 32" version="1.1" xmlns="http://www.w3.org/2000/svg" xmlns:xlink="http://www.w3.org/1999/xlink">
    <!-- Generator: Sketch 3.8.3 (29802) - http://www.bohemiancoding.com/sketch -->
    <title>search</title>
    <desc>Created with Sketch.</desc>
    <defs></defs>
    <g id="Page-1" stroke="none" stroke-width="1" fill="none" fill-rule="evenodd">
        <g id="search" fill="#FFFFFF">
            <rect id="Rectangle-195" transform="translate(9.612761, 23.475559) rotate(40.000000) translate(-9.612761, -23.475559) " x="8.11276135" y="14.9755592" width="3" height="17"></rect>
            <path d="M19.5,21 C24.7467051,21 29,16.7467051 29,11.5 C29,6.25329488 24.7467051,2 19.5,2 C14.2532949,2 10,6.25329488 10,11.5 C10,16.7467051 14.2532949,21 19.5,21 Z M19.5,18 C23.0898509,18 26,15.0898509 26,11.5 C26,7.91014913 23.0898509,5 19.5,5 C15.9101491,5 13,7.91014913 13,11.5 C13,15.0898509 15.9101491,18 19.5,18 Z" id="Combined-Shape"></path>
        </g>
    </g>
</svg>