<?xml version="1.0" encoding="UTF-8" standalone="no"?>
<svg width="180px" height="90px" viewBox="0 0 180 90" version="1.1" xmlns="http://www.w3.org/2000/svg" xmlns:xlink="http://www.w3.org/1999/xlink">
    <!-- Generator: Sketch 3.8.3 (29802) - http://www.bohemiancoding.com/sketch -->
    <title>sell-home</title>
    <desc>Created with Sketch.</desc>
    <defs></defs>
    <g id="Page-1" stroke="none" stroke-width="1" fill="none" fill-rule="evenodd">
        <g id="sell-home">
            <g id="Group-5" transform="translate(23.000000, 4.000000)" fill="#4990E2">
                <path d="M43,84 L88,84 L88,38 L99.0832611,38 L49.8578644,0.570153146 L0.632467632,38 L11,38 L11,84 L22,84 L22,50 L43,50 L43,84 Z M54,50 L65.4285714,50 L65.4285714,61.4285714 L54,61.4285714 L54,50 Z M67.5714286,50 L79,50 L79,61.4285714 L67.5714286,61.4285714 L67.5714286,50 Z M67.5714286,63.5714286 L79,63.5714286 L79,75 L67.5714286,75 L67.5714286,63.5714286 Z M54,63.5714286 L65.4285714,63.5714286 L65.4285714,75 L54,75 L54,63.5714286 Z" id="Combined-Shape"></path>
            </g>
            <g id="Group-4" transform="translate(129.516660, 19.392305) rotate(-330.000000) translate(-129.516660, -19.392305) translate(103.516660, 7.392305)">
                <path d="M2.84217094e-14,11.5214844 L12,-7.10542736e-15 L52,-7.10542736e-15 L52,24 L12,24 L2.84217094e-14,11.5214844 Z M31.1060069,5.99774914 C31.7462817,6.02021492 32.4033959,6.13254214 33.0773694,6.33473418 C33.7513428,6.53692621 34.3522935,6.85144244 34.8802394,7.27829229 C34.3298277,7.90733418 33.7850407,8.51951754 33.2458619,9.11486076 C32.9650396,8.83403849 32.628058,8.6150004 32.2349068,8.45773993 C31.8417556,8.30047946 31.4654594,8.21623404 31.1060069,8.20500115 L31.1060069,10.9008815 C31.5440896,11.0356762 31.9877822,11.1873179 32.4370978,11.3558113 C32.8864134,11.5243046 33.2964078,11.7489591 33.6670932,12.0297814 C34.0377786,12.3106036 34.3410621,12.6532017 34.5769528,13.0575857 C34.8128435,13.4619698 34.9307871,13.9674423 34.9307871,14.5740184 C34.9307871,15.1918274 34.8212681,15.7281899 34.6022267,16.183122 C34.3831853,16.6380541 34.0911345,17.0171584 33.7260656,17.3204465 C33.3609966,17.6237345 32.9453859,17.8540054 32.4792209,18.0112658 C32.013056,18.1685263 31.5328571,18.2527717 31.0386099,18.2640046 L31.0386099,19.494 L29.7917652,19.494 L29.7917652,18.2640046 C29.0616273,18.2415388 28.325884,18.103938 27.5845132,17.8511979 C26.8431424,17.5984579 26.1916445,17.2193535 25.63,16.7138734 C25.9220552,16.4105854 26.2169141,16.1044937 26.5145857,15.7955892 C26.8122573,15.4866847 27.1071163,15.1749766 27.3991715,14.8604557 C27.545199,15.0289491 27.7193062,15.183399 27.9214983,15.3238101 C28.1236903,15.4642213 28.3314957,15.584973 28.5449206,15.686069 C28.7583455,15.7871651 28.9717672,15.8686023 29.1851922,15.9303832 C29.3986171,15.9921641 29.6008061,16.0230541 29.7917652,16.0230541 L29.7917652,13.074435 C29.3087509,12.9396403 28.8454011,12.7879985 28.401702,12.6195052 C27.9580028,12.4510118 27.5676657,12.2319737 27.2306789,11.9623843 C26.8936922,11.692795 26.6241069,11.3642378 26.4219148,10.9767031 C26.2197228,10.5891684 26.1186283,10.1145859 26.1186283,9.55294131 C26.1186283,9.00252966 26.2309555,8.51109806 26.4556133,8.07863176 C26.6802712,7.64616546 26.9723219,7.28110199 27.3317745,6.98343038 C27.691227,6.68575877 28.095605,6.45548796 28.5449206,6.29261105 C28.9942362,6.12973413 29.4379288,6.03706417 29.8760115,6.01459839 L29.8760115,4.852 L31.1060069,4.852 L31.1060069,5.99774914 Z" id="Combined-Shape" fill="#4990E2"></path>
                <path d="M31.0386099,16.0399033 C31.4205282,16.0174376 31.7210035,15.8910694 31.9400449,15.6607952 C32.1590863,15.4305209 32.2686053,15.1188129 32.2686053,14.7256617 C32.2686053,14.3325105 32.1534699,14.0376515 31.9231956,13.8410759 C31.6929214,13.6445004 31.3980624,13.4900504 31.0386099,13.3777215 L31.0386099,16.0399033 Z" id="Path" fill="#4A90E2"></path>
                <path d="M29.8760115,8.17130265 C29.5727235,8.20500132 29.3003299,8.32013672 29.0588228,8.51671231 C28.8173156,8.7132879 28.6965639,8.99691414 28.6965639,9.36759954 C28.6965639,9.72705205 28.8032747,10.0022537 29.0166997,10.1932129 C29.2301246,10.384172 29.516559,10.5245811 29.8760115,10.6144442 L29.8760115,8.17130265 Z" id="Path" fill="#4A90E2"></path>
            </g>
            <path d="M108.225485,6.29478695 C108.225485,6.29478695 99.949846,4.28485277 99.0331019,10.7615838 C98.1163579,17.2383149 116.646383,22.0301385 104.405172,33.2850213" id="Path-8" stroke="#4A90E2"></path>
        </g>
    </g>
</svg>